<svg width="776" height="222" viewBox="0 0 776 222" fill="none" xmlns="http://www.w3.org/2000/svg">
<path d="M20.0906 176.705C25.0572 176.705 29.0835 180.933 29.0835 186.148L29.0835 209.557C29.0835 214.772 33.1098 219 38.0765 219H58.3294C63.2961 219 67.3224 214.772 67.3224 209.557V186.148C67.3224 180.933 63.2961 176.705 58.3294 176.705H42.2358C37.2691 176.705 33.2428 172.477 33.2428 167.262L33.2428 54.9344C33.2428 49.7194 29.2165 45.4918 24.2498 45.4918H8.99298C4.0263 45.4918 0 49.7194 0 54.9344L0 167.262C0 172.477 4.02629 176.705 8.99297 176.705H20.0906Z" fill="white" style="fill:white;fill-opacity:1;"/>
<path d="M83.6659 45.2951C88.6326 45.2951 92.6589 41.0675 92.6589 35.8525V12.4426C92.6589 7.22762 96.6852 3 101.652 3H121.905C126.871 3 130.898 7.22762 130.898 12.4426V35.8525C130.898 41.0675 126.871 45.2951 121.905 45.2951H105.811C100.844 45.2951 96.8181 49.5227 96.8181 54.7377L96.8181 167.066C96.8181 172.281 92.7918 176.508 87.8251 176.508H72.5683C67.6016 176.508 63.5753 172.281 63.5753 167.066L63.5753 54.7377C63.5753 49.5227 67.6016 45.2951 72.5683 45.2951H83.6659Z" fill="white" style="fill:white;fill-opacity:1;"/>
<path d="M76.3341 176.705C71.3674 176.705 67.3411 180.933 67.3411 186.148V209.557C67.3411 214.772 63.3148 219 58.3482 219H38.0952C33.1285 219 29.1023 214.772 29.1023 209.557L29.1023 186.148C29.1023 180.933 33.1286 176.705 38.0952 176.705H54.1889C59.1556 176.705 63.1819 172.477 63.1819 167.262L63.1819 54.9344C63.1819 49.7194 67.2082 45.4918 72.1749 45.4918H87.4317C92.3984 45.4918 96.4247 49.7194 96.4247 54.9344L96.4247 167.262C96.4247 172.477 92.3984 176.705 87.4317 176.705H76.3341Z" fill="white" style="fill:white;fill-opacity:1;"/>
<path d="M139.909 45.2951C134.943 45.2951 130.916 41.0675 130.916 35.8525V12.4426C130.916 7.22762 126.89 3 121.923 3H101.671C96.7039 3 92.6776 7.22762 92.6776 12.4426V35.8525C92.6776 41.0675 96.7039 45.2951 101.671 45.2951H117.764C122.731 45.2951 126.757 49.5227 126.757 54.7377L126.757 167.066C126.757 172.281 130.784 176.508 135.75 176.508H151.007C155.974 176.508 160 172.281 160 167.066V54.7377C160 49.5227 155.974 45.2951 151.007 45.2951H139.909Z" fill="white" style="fill:white;fill-opacity:1;"/>
<path d="M250.688 59H241.125V12.9375H250.688V59ZM263.932 49.6875H273.401V59H263.932V49.6875ZM285.74 36.3438C285.74 28.3021 287.896 22.1042 292.209 17.75C295.959 13.9583 300.73 12.0625 306.521 12.0625C314.271 12.0625 319.938 14.6042 323.521 19.6875C325.5 22.5417 326.563 25.4062 326.709 28.2812H317.084C316.459 26.0729 315.657 24.4062 314.677 23.2812C312.927 21.2812 310.334 20.2812 306.896 20.2812C303.396 20.2812 300.636 21.6979 298.615 24.5312C296.594 27.3438 295.584 31.3333 295.584 36.5C295.584 41.6667 296.646 45.5417 298.771 48.125C300.917 50.6875 303.636 51.9688 306.927 51.9688C310.302 51.9688 312.875 50.8646 314.646 48.6562C315.625 47.4688 316.438 45.6875 317.084 43.3125H326.615C325.782 48.3333 323.646 52.4167 320.209 55.5625C316.792 58.7083 312.407 60.2812 307.052 60.2812C300.427 60.2812 295.219 58.1562 291.427 53.9062C287.636 49.6354 285.74 43.7812 285.74 36.3438ZM338.235 49.6875H347.704V59H338.235V49.6875ZM369.011 44.7812C369.303 46.8854 369.876 48.4583 370.73 49.5C372.292 51.3958 374.97 52.3438 378.761 52.3438C381.032 52.3438 382.876 52.0938 384.292 51.5938C386.98 50.6354 388.324 48.8542 388.324 46.25C388.324 44.7292 387.657 43.5521 386.324 42.7188C384.99 41.9062 382.897 41.1875 380.042 40.5625L375.167 39.4688C370.376 38.3854 367.063 37.2083 365.23 35.9375C362.126 33.8125 360.574 30.4896 360.574 25.9688C360.574 21.8438 362.074 18.4167 365.074 15.6875C368.074 12.9583 372.48 11.5938 378.292 11.5938C383.147 11.5938 387.282 12.8854 390.699 15.4688C394.136 18.0312 395.938 21.7604 396.105 26.6562H386.855C386.688 23.8854 385.48 21.9167 383.23 20.75C381.73 19.9792 379.865 19.5938 377.636 19.5938C375.157 19.5938 373.178 20.0938 371.699 21.0938C370.22 22.0938 369.48 23.4896 369.48 25.2812C369.48 26.9271 370.209 28.1562 371.667 28.9688C372.605 29.5104 374.605 30.1458 377.667 30.875L385.605 32.7812C389.084 33.6146 391.709 34.7292 393.48 36.125C396.23 38.2917 397.605 41.4271 397.605 45.5312C397.605 49.7396 395.99 53.2396 392.761 56.0312C389.553 58.8021 385.011 60.1875 379.136 60.1875C373.136 60.1875 368.417 58.8229 364.98 56.0938C361.542 53.3438 359.824 49.5729 359.824 44.7812H369.011Z" fill="white" style="fill:white;fill-opacity:1;"/>
<path d="M251.219 94.9375V125H260.094C264.635 125 267.802 122.76 269.594 118.281C270.573 115.823 271.062 112.896 271.062 109.5C271.062 104.812 270.323 101.219 268.844 98.7188C267.385 96.1979 264.469 94.9375 260.094 94.9375H251.219ZM261.719 86.9375C264.573 86.9792 266.948 87.3125 268.844 87.9375C272.073 89 274.688 90.9479 276.688 93.7812C278.292 96.0729 279.385 98.5521 279.969 101.219C280.552 103.885 280.844 106.427 280.844 108.844C280.844 114.969 279.615 120.156 277.156 124.406C273.823 130.135 268.677 133 261.719 133H241.875V86.9375H261.719ZM327.307 95.0938H302.932V104.875H325.307V112.875H302.932V124.719H328.432V133H293.526V86.9375H327.307V95.0938ZM348.021 118.781C348.313 120.885 348.886 122.458 349.74 123.5C351.302 125.396 353.98 126.344 357.771 126.344C360.042 126.344 361.886 126.094 363.302 125.594C365.99 124.635 367.334 122.854 367.334 120.25C367.334 118.729 366.667 117.552 365.334 116.719C364 115.906 361.907 115.188 359.052 114.562L354.177 113.469C349.386 112.385 346.073 111.208 344.24 109.938C341.136 107.812 339.584 104.49 339.584 99.9688C339.584 95.8438 341.084 92.4167 344.084 89.6875C347.084 86.9583 351.49 85.5938 357.302 85.5938C362.157 85.5938 366.292 86.8854 369.709 89.4688C373.146 92.0312 374.948 95.7604 375.115 100.656H365.865C365.698 97.8854 364.49 95.9167 362.24 94.75C360.74 93.9792 358.875 93.5938 356.646 93.5938C354.167 93.5938 352.188 94.0938 350.709 95.0938C349.23 96.0938 348.49 97.4896 348.49 99.2812C348.49 100.927 349.219 102.156 350.677 102.969C351.615 103.51 353.615 104.146 356.677 104.875L364.615 106.781C368.094 107.615 370.719 108.729 372.49 110.125C375.24 112.292 376.615 115.427 376.615 119.531C376.615 123.74 375 127.24 371.771 130.031C368.563 132.802 364.021 134.188 358.146 134.188C352.146 134.188 347.427 132.823 343.99 130.094C340.552 127.344 338.834 123.573 338.834 118.781H348.021ZM397.673 133H388.11V86.9375H397.673V133ZM442.761 101.312C442.032 98.1667 440.251 95.9688 437.417 94.7188C435.834 94.0312 434.074 93.6875 432.136 93.6875C428.428 93.6875 425.376 95.0938 422.98 97.9062C420.605 100.698 419.417 104.906 419.417 110.531C419.417 116.198 420.709 120.208 423.292 122.562C425.876 124.917 428.813 126.094 432.105 126.094C435.334 126.094 437.98 125.167 440.042 123.312C442.105 121.438 443.376 118.99 443.855 115.969H433.199V108.281H452.386V133H446.011L445.042 127.25C443.188 129.438 441.522 130.979 440.042 131.875C437.501 133.438 434.376 134.219 430.667 134.219C424.563 134.219 419.563 132.104 415.667 127.875C411.605 123.625 409.574 117.812 409.574 110.438C409.574 102.979 411.626 97 415.73 92.5C419.834 88 425.261 85.75 432.011 85.75C437.865 85.75 442.563 87.2396 446.105 90.2188C449.667 93.1771 451.709 96.875 452.23 101.312H442.761ZM466.569 86.9375H476.663L495.006 119.094V86.9375H503.975V133H494.35L475.538 100.281V133H466.569V86.9375ZM539.621 120.844C539.621 118.073 540.309 115.698 541.684 113.719C543.059 111.74 545.309 109.781 548.434 107.844L549.402 107.25C548.069 105.75 547.038 104.219 546.309 102.656C545.58 101.094 545.215 99.4688 545.215 97.7812C545.215 94.4271 546.34 91.8125 548.59 89.9375C550.84 88.0417 553.757 87.0938 557.34 87.0938C560.611 87.0938 563.309 88.0625 565.434 90C567.58 91.9167 568.652 94.375 568.652 97.375C568.652 100.083 568.007 102.281 566.715 103.969C565.444 105.656 563.569 107.219 561.09 108.656L567.621 116.719C568.371 115.635 568.944 114.458 569.34 113.188C569.757 111.917 569.975 110.573 569.996 109.156H577.902C577.777 111.948 577.111 114.771 575.902 117.625C575.236 119.229 574.152 121 572.652 122.938L581.027 133H570.215L567.027 129.094C565.486 130.531 564.048 131.594 562.715 132.281C560.34 133.51 557.6 134.125 554.496 134.125C549.83 134.125 546.184 132.75 543.559 130C540.934 127.25 539.621 124.198 539.621 120.844ZM553.402 97.4688C553.402 98.3021 553.694 99.1771 554.277 100.094C554.652 100.698 555.465 101.771 556.715 103.312C557.965 102.438 558.861 101.698 559.402 101.094C560.444 99.9688 560.965 98.75 560.965 97.4375C560.965 96.4792 560.652 95.625 560.027 94.875C559.402 94.125 558.455 93.75 557.184 93.75C556.392 93.75 555.652 93.9688 554.965 94.4062C553.923 95.0521 553.402 96.0729 553.402 97.4688ZM548.496 120.562C548.496 122.083 549.111 123.479 550.34 124.75C551.59 126.021 553.184 126.656 555.121 126.656C556.58 126.656 557.955 126.323 559.246 125.656C560.559 124.969 561.621 124.208 562.434 123.375L553.996 112.938C551.767 114.417 550.288 115.719 549.559 116.844C548.85 117.969 548.496 119.208 548.496 120.562Z" fill="white" style="fill:white;fill-opacity:1;"/>
<path d="M251.219 168.938V199H260.094C264.635 199 267.802 196.76 269.594 192.281C270.573 189.823 271.062 186.896 271.062 183.5C271.062 178.812 270.323 175.219 268.844 172.719C267.385 170.198 264.469 168.938 260.094 168.938H251.219ZM261.719 160.938C264.573 160.979 266.948 161.312 268.844 161.938C272.073 163 274.688 164.948 276.688 167.781C278.292 170.073 279.385 172.552 279.969 175.219C280.552 177.885 280.844 180.427 280.844 182.844C280.844 188.969 279.615 194.156 277.156 198.406C273.823 204.135 268.677 207 261.719 207H241.875V160.938H261.719ZM327.307 169.094H302.932V178.875H325.307V186.875H302.932V198.719H328.432V207H293.526V160.938H327.307V169.094ZM368.021 160.938H378.021L362.302 207H353.209L337.646 160.938H347.927L357.927 195.906L368.021 160.938ZM422.923 169.094H398.548V178.875H420.923V186.875H398.548V198.719H424.048V207H389.141V160.938H422.923V169.094ZM436.667 160.938H446.292V198.719H469.105V207H436.667V160.938ZM501.288 200.125C505.1 200.125 508.121 198.719 510.35 195.906C512.6 193.094 513.725 189.094 513.725 183.906C513.725 178.74 512.6 174.75 510.35 171.938C508.121 169.104 505.1 167.688 501.288 167.688C497.475 167.688 494.433 169.094 492.163 171.906C489.892 174.719 488.756 178.719 488.756 183.906C488.756 189.094 489.892 193.094 492.163 195.906C494.433 198.719 497.475 200.125 501.288 200.125ZM523.35 183.906C523.35 192.177 521.027 198.51 516.381 202.906C512.902 206.49 507.871 208.281 501.288 208.281C494.704 208.281 489.673 206.49 486.194 202.906C481.527 198.51 479.194 192.177 479.194 183.906C479.194 175.469 481.527 169.135 486.194 164.906C489.673 161.323 494.704 159.531 501.288 159.531C507.871 159.531 512.902 161.323 516.381 164.906C521.027 169.135 523.35 175.469 523.35 183.906ZM561.783 175.594C561.783 173.198 561.147 171.49 559.876 170.469C558.626 169.448 556.866 168.938 554.595 168.938H545.626V182.5H554.595C556.866 182.5 558.626 181.948 559.876 180.844C561.147 179.74 561.783 177.99 561.783 175.594ZM571.314 175.531C571.314 180.969 569.939 184.812 567.189 187.062C564.439 189.312 560.512 190.438 555.408 190.438H545.626V207H536.064V160.938H556.126C560.751 160.938 564.439 162.125 567.189 164.5C569.939 166.875 571.314 170.552 571.314 175.531ZM614.184 160.938H628.027V207H619.059V175.844C619.059 174.948 619.069 173.698 619.09 172.094C619.111 170.469 619.121 169.219 619.121 168.344L610.402 207H601.059L592.402 168.344C592.402 169.219 592.413 170.469 592.434 172.094C592.455 173.698 592.465 174.948 592.465 175.844V207H583.496V160.938H597.496L605.871 197.156L614.184 160.938ZM676.147 169.094H651.772V178.875H674.147V186.875H651.772V198.719H677.272V207H642.366V160.938H676.147V169.094ZM689.736 160.938H699.83L718.174 193.094V160.938H727.142V207H717.517L698.705 174.281V207H689.736V160.938ZM774.731 160.938V169.094H760.95V207H751.263V169.094H737.419V160.938H774.731Z" fill="white" style="fill:white;fill-opacity:1;"/>
</svg>
